<svg width="16" height="14" viewBox="0 0 16 14" fill="none" xmlns="http://www.w3.org/2000/svg">
<g clip-path="url(#clip0)">
<path d="M1.99506 9.14085L10.3234 1.15034C10.4092 1.06751 10.5254 1.02084 10.6465 1.02084H10.6471C10.7682 1.02084 10.8844 1.06693 10.9696 1.14918L13.9206 3.97834C14.0063 4.06059 14.0544 4.17201 14.0544 4.28751C14.0544 4.40359 14.0063 4.51501 13.9206 4.59726L5.58488 12.5831L1.99506 9.14085Z" fill="white"/>
<path d="M14.2479 3.46677L14.5479 3.17918C14.916 2.82568 15.1192 2.3596 15.1192 1.86668C15.1192 1.36268 14.9148 0.893682 14.5491 0.549515C13.8177 -0.158651 12.5321 -0.158068 11.8026 0.548349L11.5026 0.835932L14.2479 3.46677Z" fill="white"/>
<path d="M1.74803 9.72885L0.537226 13.4319C0.486726 13.587 0.529925 13.7568 0.650397 13.8717C0.736796 13.9551 0.853617 14 0.972872 14C1.01851 14 1.06414 13.9936 1.10977 13.9802L4.97156 12.8194L1.74803 9.72885Z" fill="white"/>
<path d="M4.75739 5.12634C4.87421 5.12634 4.99103 5.08376 5.07986 4.99801L8.02595 2.17351C8.18353 2.02301 8.39406 1.96351 8.60032 1.97809L9.32072 1.28684C8.69767 0.967177 7.90548 1.05176 7.38039 1.55459L4.4343 4.37909C4.25603 4.55001 4.25603 4.82709 4.4343 4.99801C4.52374 5.08318 4.63996 5.12634 4.75739 5.12634Z" fill="white"/>
</g>
<defs>
<clipPath id="clip0">
<path d="M0.516541 7.30133C0.516541 3.26892 3.78545 0 7.81786 0C11.8503 0 15.1192 3.26892 15.1192 7.30133V14H0.516541V7.30133Z" fill="white"/>
</clipPath>
</defs>
</svg>
