<svg width="18" height="16" viewBox="0 0 18 16" fill="none" xmlns="http://www.w3.org/2000/svg">
<g clip-path="url(#clip0)">
<path d="M16.626 10.0232L9.66337 3.33764C9.38503 3.08427 9.06008 2.95758 8.68877 2.95758C8.31028 2.95758 7.98898 3.08423 7.72466 3.33764L0.751371 10.0232C0.480003 10.2833 0.344376 10.5948 0.344376 10.9577C0.344376 11.3275 0.480153 11.6355 0.751371 11.8819L1.55467 12.6521C1.81182 12.9122 2.1332 13.0424 2.51877 13.0424C2.90438 13.0424 3.22569 12.9122 3.48287 12.6521L8.68877 7.6713L13.8947 12.652C14.1516 12.912 14.473 13.0423 14.8589 13.0423C15.2372 13.0423 15.5623 12.912 15.8334 12.652L16.6367 11.8818C16.9009 11.6285 17.0331 11.3204 17.0331 10.9576C17.0331 10.5947 16.8975 10.2832 16.626 10.0232Z" fill="white"/>
</g>
<defs>
<clipPath id="clip0">
<path d="M0.344376 8.34437C0.344376 3.7359 4.08028 0 8.68875 0C13.2972 0 17.0331 3.7359 17.0331 8.34437V16H0.344376V8.34437Z" fill="white"/>
</clipPath>
</defs>
</svg>
