<svg width="18" height="16" viewBox="0 0 18 16" fill="none" xmlns="http://www.w3.org/2000/svg">
<path d="M14.7995 4.53125C15.1446 4.53125 15.3838 4.19684 15.2544 3.89019C14.795 2.80141 13.6809 2.03125 12.3825 2.03125H11.7823C11.5584 0.897719 10.5218 0 9.25333 0H8.21028C6.94262 0 5.90531 0.897125 5.68135 2.03125H5.08114C3.78275 2.03125 2.66858 2.80141 2.20921 3.89019C2.07984 4.19684 2.31906 4.53125 2.66408 4.53125H14.7995ZM8.21028 0.9375H9.25333C9.96716 0.9375 10.5731 1.39794 10.7771 2.03125H6.68652C6.8905 1.39794 7.49645 0.9375 8.21028 0.9375Z" fill="white"/>
<path d="M4.00722 14.6936C4.06162 15.4262 4.7043 16 5.47029 16H11.9933C12.7593 16 13.4019 15.4262 13.4563 14.6936L14.1416 5.46875H3.32201L4.00722 14.6936ZM10.0688 7.97659C10.0823 7.71803 10.3123 7.51863 10.5815 7.53184C10.8512 7.54478 11.0589 7.76487 11.0454 8.02341L10.7847 13.0234C10.7716 13.274 10.5556 13.4688 10.2968 13.4688C10.0152 13.4688 9.79414 13.243 9.80803 12.9766L10.0688 7.97659ZM6.88205 7.53184C7.15139 7.51887 7.38131 7.71806 7.39478 7.97659L7.65554 12.9766C7.66942 13.2432 7.44817 13.4688 7.1668 13.4688C6.908 13.4688 6.69196 13.274 6.67889 13.0234L6.41813 8.02341C6.40466 7.76487 6.61236 7.54478 6.88205 7.53184Z" fill="white"/>
</svg>
