<?xml version="1.0" encoding="utf-8"?>
<!-- Generator: Adobe Illustrator 22.1.0, SVG Export Plug-In . SVG Version: 6.00 Build 0)  -->
<svg version="1.1" id="Слой_1" xmlns="http://www.w3.org/2000/svg" xmlns:xlink="http://www.w3.org/1999/xlink" x="0px" y="0px"
	 viewBox="0 0 18 16" style="enable-background:new 0 0 18 16;" xml:space="preserve">
<style type="text/css">
	.st0{clip-path:url(#SVGID_2_);}
	.st1{fill:#FFFFFF;}
</style>
<g>
	<defs>
		<path id="SVGID_1_" d="M17,7.7c0,4.6-3.7,8.3-8.3,8.3c-4.6,0-8.3-3.7-8.3-8.3V0H17V7.7z"/>
	</defs>
	<clipPath id="SVGID_2_">
		<use xlink:href="#SVGID_1_"  style="overflow:visible;"/>
	</clipPath>
	<g class="st0">
		<path class="st1" d="M0.8,6l7,6.7C8,12.9,8.3,13,8.7,13c0.4,0,0.7-0.1,1-0.4l7-6.7C16.9,5.7,17,5.4,17,5c0-0.4-0.1-0.7-0.4-0.9
			l-0.8-0.8c-0.3-0.3-0.6-0.4-1-0.4c-0.4,0-0.7,0.1-1,0.4l-5.2,5l-5.2-5C3.2,3.1,2.9,3,2.5,3c-0.4,0-0.7,0.1-1,0.4L0.7,4.1
			C0.5,4.4,0.3,4.7,0.3,5C0.3,5.4,0.5,5.7,0.8,6z"/>
	</g>
</g>
</svg>
