<?xml version="1.0" encoding="utf-8"?>
<!-- Generator: Adobe Illustrator 24.2.0, SVG Export Plug-In . SVG Version: 6.00 Build 0)  -->
<svg version="1.1" id="Слой_1" xmlns="http://www.w3.org/2000/svg" xmlns:xlink="http://www.w3.org/1999/xlink" x="0px" y="0px"
	 viewBox="0 0 18 16" style="enable-background:new 0 0 18 16;" xml:space="preserve">
<style type="text/css">
	.st0{fill:#C1C1C1;}
</style>
<path class="st0" d="M14.8,4.5c0.3,0,0.6-0.3,0.5-0.6C14.8,2.8,13.7,2,12.4,2h-0.6c-0.2-1.1-1.3-2-2.5-2h-1C6.9,0,5.9,0.9,5.7,2H5.1
	C3.8,2,2.7,2.8,2.2,3.9C2.1,4.2,2.3,4.5,2.7,4.5H14.8z M8.2,0.9h1c0.7,0,1.3,0.5,1.5,1.1H6.7C6.9,1.4,7.5,0.9,8.2,0.9z"/>
<path class="st0" d="M4,14.7C4.1,15.4,4.7,16,5.5,16H12c0.8,0,1.4-0.6,1.5-1.3l0.7-9.2H3.3L4,14.7z M10.1,8c0-0.3,0.2-0.5,0.5-0.4
	c0.3,0,0.5,0.2,0.5,0.5l-0.3,5c0,0.3-0.2,0.4-0.5,0.4c-0.3,0-0.5-0.2-0.5-0.5L10.1,8z M6.9,7.5c0.3,0,0.5,0.2,0.5,0.4l0.3,5
	c0,0.3-0.2,0.5-0.5,0.5c-0.3,0-0.5-0.2-0.5-0.4L6.4,8C6.4,7.8,6.6,7.5,6.9,7.5z"/>
</svg>
