<?xml version="1.0" encoding="utf-8"?>
<!-- Generator: Adobe Illustrator 22.1.0, SVG Export Plug-In . SVG Version: 6.00 Build 0)  -->
<svg version="1.1" id="Слой_1" xmlns="http://www.w3.org/2000/svg" xmlns:xlink="http://www.w3.org/1999/xlink" x="0px" y="0px"
	 viewBox="0 0 512 512" style="enable-background:new 0 0 512 512;" xml:space="preserve">
<style type="text/css">
	.st0{fill:#C1C1C1;}
</style>
<g>
	<path class="st0" d="M340.5,256L498.9,97.6c17.5-17.5,17.5-45.9,0-63.3l-21.1-21.1c-17.5-17.5-45.9-17.5-63.4,0L256,171.5
		L97.6,13.1c-17.5-17.5-45.9-17.5-63.3,0L13.1,34.2c-17.5,17.5-17.5,45.9,0,63.4L171.5,256L13.2,414.4c-17.5,17.5-17.5,45.9,0,63.4
		l21.1,21.1c17.5,17.5,45.9,17.5,63.3,0L256,340.5l158.4,158.4c17.5,17.5,45.9,17.5,63.4,0l21.1-21.1c17.5-17.5,17.5-45.9,0-63.4
		L340.5,256z"/>
</g>
</svg>
