<svg width="16" height="16" viewBox="0 0 16 16" fill="none" xmlns="http://www.w3.org/2000/svg">
<g clip-path="url(#clip0)">
<path d="M11.7417 10.3285C12.529 9.25335 12.9999 7.93269 12.9999 6.50098C12.9999 2.91701 10.0839 0.000991821 6.49996 0.000991821C2.91599 0.000991821 0 2.91701 0 6.50098C0 10.0849 2.91602 13.001 6.49999 13.001C7.93169 13.001 9.25248 12.53 10.3277 11.7426L14.5859 16.0009L16 14.5869C16 14.5868 11.7417 10.3285 11.7417 10.3285ZM6.49999 11.001C4.01854 11.001 2.00001 8.98242 2.00001 6.50098C2.00001 4.01954 4.01854 2.001 6.49999 2.001C8.98143 2.001 11 4.01954 11 6.50098C11 8.98242 8.9814 11.001 6.49999 11.001Z" fill="#A2A2A2"/>
</g>
<defs>
<clipPath id="clip0">
<rect width="16" height="16" fill="white"/>
</clipPath>
</defs>
</svg>
